<svg xmlns="http://www.w3.org/2000/svg" fill="none" viewBox="0 0 348 348"><path stroke="#000" stroke-width="2" d="M5.08 5.78h336.91v337.67H5.08z"/><path stroke="#000" stroke-width="2" d="M282.73 40.55c0-8.37 6.97-15.16 15.56-15.16 4.13 0 8.09 1.6 11 4.44a14.97 14.97 0 0 1 4.56 10.72c0 8.38-6.96 15.17-15.56 15.17-8.59 0-15.56-6.8-15.56-15.17z"/><path fill="#fff" stroke="#000" stroke-width="1.5" d="M33.33 24.89h147.11v33.78H33.33zm.01 42.45h147.1v244.54H33.34zM200.7 128.7h98.35v58.61H200.7zm.14 72.14h118.58v48.33H200.84zm-.09 69.91h59.1v23.35h-59.1z"/></svg>