<svg xmlns="http://www.w3.org/2000/svg" xml:space="preserve" fill="none" viewBox="0 0 512 512"><g stroke="#000" stroke-width="2"><path d="M18 18h478v478H18Z"/><circle cx="448" cy="64" r="23"/><path fill="#000" stroke-miterlimit="10" d="M268 242a19 19 0 0 0-12-5 19 19 0 0 0-19 19 19 19 0 0 0 19 19 19 19 0 0 0 19-19 19 19 0 0 0-7-14zm-12 5 9 9-9 10-10-10z"/></g><g stroke="#000" stroke-linecap="round" stroke-miterlimit="5"><path stroke-width="6" d="m255 74 181 181-181 181L74 255z"/><path stroke-width="3.8" d="m165 166 80 80m103-81-80 80m-24 18-80 80m104-78 79 79M70 364h79v79H70z"/></g><path fill="#000" stroke="#000" stroke-linecap="round" stroke-miterlimit="5" stroke-width="3.8" d="m91 274 39 38v50H90z"/></svg>